# xmcd
#
# Track frame offsets: 
#        150
#        12652
#        25096
#        37527
#        51661
#        63570
#        73291
#        83344
#        94479
#        103729
#        117777
#        127960
#        137005
#        146393
#        160642
#        169803
#        181169
#        195242
#        208460
#        220997
#        238269
#        249196
#        257830
#        270904
#        283472
#        294116
#        305775
#        317217
#
# Disc length: 4394 seconds
#
# Revision: 2
# Processed by: cddbd v1.5.2PL0 Copyright (c) Steve Scherf et al.
# Submitted via: ExactAudioCopy v0.95b4
#
DISCID=a011281c
DTITLE=Slim Whitman - The Essential - 1
DYEAR=2009
DGENRE=Country
TTITLE0=Let Me Live Again [1970]
TTITLE1=More Than Yesterday [1965]
TTITLE2=It Takes A Lot Of Tenderness [1971]
TTITLE3=Here It All Began [1972]
TTITLE4=Something Pretty [1969]
TTITLE5=Salina [1970]
TTITLE6=I'm Beginning Love To You [1975]
TTITLE7=My Heart Is In The Roses [1968]
TTITLE8=Nights Of Splendor [1980]
TTITLE9=No Other Love [1973]
TTITLE10=It's A Sin To Tell A Lie [1971]
TTITLE11=My Heart Was Made For Loving You [1969]
TTITLE12=Stop And Think It Over [1971]
TTITLE13=What About You [1971]
TTITLE14=A Touch Of Yesterday [1973]
TTITLE15=Our Song [1975]
TTITLE16=So Close To Home [1973]
TTITLE17=I'll Always Be In Love With You [1978]
TTITLE18=It's My Life [1973]
TTITLE19=Where Did Yesterday Go [1980]
TTITLE20=I Remeber You (live version) [1973]
TTITLE21=it's My Lucky Day [1971]
TTITLE22=Nearer My Love To You [1980]
TTITLE23=When There Is Love [1969]
TTITLE24=North Wind [1967]
TTITLE25=Elizabeth (You're My Queen) [1975]
TTITLE26=Love Lanes Of Yesterday [1969]
TTITLE27=Red Wing [1971]
EXTD=
EXTT0=
EXTT1=
EXTT2=
EXTT3=
EXTT4=
EXTT5=
EXTT6=
EXTT7=
EXTT8=
EXTT9=
EXTT10=
EXTT11=
EXTT12=
EXTT13=
EXTT14=
EXTT15=
EXTT16=
EXTT17=
EXTT18=
EXTT19=
EXTT20=
EXTT21=
EXTT22=
EXTT23=
EXTT24=
EXTT25=
EXTT26=
EXTT27=
PLAYORDER=
